<svg width="384" height="489" viewBox="0 0 384 489" fill="none" xmlns="http://www.w3.org/2000/svg">
<g filter="url(#filter0_d_642_14)">
<rect x="4" y="34.8734" width="376" height="446.127" rx="11" fill="#6ABD67"/>
<rect x="4.5" y="35.3734" width="375" height="445.127" rx="10.5" stroke="white"/>
</g>
<line x1="72.8577" y1="481" x2="72.8577" y2="388.894" stroke="white" stroke-width="5"/>
<line x1="304.084" y1="481" x2="304.084" y2="388.894" stroke="#FFFDFD" stroke-width="5"/>
<line x1="71.5526" y1="391.511" x2="306.209" y2="391.511" stroke="white" stroke-width="5"/>
<line x1="128.434" y1="481" x2="128.434" y2="438.017" stroke="white" stroke-width="5"/>
<line x1="249.193" y1="481" x2="249.193" y2="438.017" stroke="#FFFDFD" stroke-width="5"/>
<line x1="126.359" y1="440.634" x2="250.549" y2="440.634" stroke="white" stroke-width="5"/>
<mask id="path-9-inside-1_642_14" fill="white">
<path d="M247.444 394.011C247.444 382.339 241.67 371.146 231.391 362.893C221.113 354.641 207.173 350.004 192.637 350.004C178.102 350.004 164.161 354.641 153.883 362.893C143.605 371.146 137.83 382.339 137.83 394.011L192.637 394.011H247.444Z"/>
</mask>
<path d="M247.444 394.011C247.444 382.339 241.67 371.146 231.391 362.893C221.113 354.641 207.173 350.004 192.637 350.004C178.102 350.004 164.161 354.641 153.883 362.893C143.605 371.146 137.83 382.339 137.83 394.011L192.637 394.011H247.444Z" stroke="#FDFDFD" stroke-width="10" mask="url(#path-9-inside-1_642_14)"/>
<mask id="path-10-inside-2_642_14" fill="white">
<path d="M247.444 34.284C247.444 38.7863 246.01 43.2444 243.224 47.404C240.437 51.5635 236.353 55.343 231.205 58.5265C226.056 61.7101 219.944 64.2354 213.218 65.9584C206.491 67.6813 199.281 68.5681 192 68.5681C184.719 68.5681 177.509 67.6813 170.782 65.9584C164.056 64.2354 157.944 61.7101 152.795 58.5265C147.647 55.343 143.563 51.5635 140.776 47.404C137.99 43.2444 136.556 38.7863 136.556 34.284L192 34.284H247.444Z"/>
</mask>
<path d="M247.444 34.284C247.444 38.7863 246.01 43.2444 243.224 47.404C240.437 51.5635 236.353 55.343 231.205 58.5265C226.056 61.7101 219.944 64.2354 213.218 65.9584C206.491 67.6813 199.281 68.5681 192 68.5681C184.719 68.5681 177.509 67.6813 170.782 65.9584C164.056 64.2354 157.944 61.7101 152.795 58.5265C147.647 55.343 143.563 51.5635 140.776 47.404C137.99 43.2444 136.556 38.7863 136.556 34.284L192 34.284H247.444Z" stroke="#FDFDFD" stroke-width="10" mask="url(#path-10-inside-2_642_14)"/>
<defs>
<filter id="filter0_d_642_14" x="0" y="34.8734" width="384" height="454.127" filterUnits="userSpaceOnUse" color-interpolation-filters="sRGB">
<feFlood flood-opacity="0" result="BackgroundImageFix"/>
<feColorMatrix in="SourceAlpha" type="matrix" values="0 0 0 0 0 0 0 0 0 0 0 0 0 0 0 0 0 0 127 0" result="hardAlpha"/>
<feOffset dy="4"/>
<feGaussianBlur stdDeviation="2"/>
<feComposite in2="hardAlpha" operator="out"/>
<feColorMatrix type="matrix" values="0 0 0 0 0 0 0 0 0 0 0 0 0 0 0 0 0 0 0.25 0"/>
<feBlend mode="normal" in2="BackgroundImageFix" result="effect1_dropShadow_642_14"/>
<feBlend mode="normal" in="SourceGraphic" in2="effect1_dropShadow_642_14" result="shape"/>
</filter>
</defs>
</svg>
