<svg width="272" height="218" viewBox="0 0 272 218" fill="none" xmlns="http://www.w3.org/2000/svg">
<g filter="url(#filter0_d_918_9433)">
<rect x="4" y="0.0447388" width="263.935" height="209.955" rx="11" fill="#6ABD67"/>
<rect x="4.5" y="0.544739" width="262.935" height="208.955" rx="10.5" stroke="white"/>
</g>
<line x1="53.5" y1="209.807" x2="53.5" y2="144" stroke="white" stroke-width="3"/>
<line x1="214.9" y1="210" x2="214.9" y2="144.193" stroke="#FFFDFD" stroke-width="3"/>
<line x1="51.6816" y1="142.693" x2="216.4" y2="142.693" stroke="white" stroke-width="3"/>
<path d="M92.1851 210V177.097" stroke="white" stroke-width="3"/>
<line x1="176.369" y1="210" x2="176.369" y2="177.097" stroke="#FFFDFD" stroke-width="3"/>
<line x1="90.6938" y1="175.597" x2="177.869" y2="175.597" stroke="white" stroke-width="3"/>
<mask id="path-9-inside-1_918_9433" fill="white">
<path d="M174.98 144.193C174.98 135.744 170.92 127.64 163.694 121.665C156.468 115.691 146.668 112.334 136.449 112.334C126.23 112.334 116.43 115.691 109.204 121.665C101.978 127.64 97.9184 135.744 97.9184 144.193L136.449 144.193H174.98Z"/>
</mask>
<path d="M174.98 144.193C174.98 135.744 170.92 127.64 163.694 121.665C156.468 115.691 146.668 112.334 136.449 112.334C126.23 112.334 116.43 115.691 109.204 121.665C101.978 127.64 97.9184 135.744 97.9184 144.193L136.449 144.193H174.98Z" stroke="#FDFDFD" stroke-width="6" mask="url(#path-9-inside-1_918_9433)"/>
<path fill-rule="evenodd" clip-rule="evenodd" d="M98 0.958811C98 4.12637 99.2923 8.20944 101.377 11.6291C102.513 13.4918 105.103 16.503 106.957 18.1156C113.163 23.5145 122.231 27.0955 131.707 27.8898C133.9 28.0738 139.042 28.019 141.311 27.7877C146.134 27.296 152.279 25.6721 155.748 23.9731C156.118 23.7917 156.926 23.4106 157.543 23.1262C158.16 22.8417 159.09 22.3372 159.608 22.0051C160.127 21.673 160.584 21.4013 160.623 21.4013C160.808 21.4013 164.185 18.8588 165.248 17.9188C167.236 16.1614 169.362 13.6573 170.669 11.5325C172.686 8.25453 173.995 4.02443 173.999 0.776002L174 0H136H98V0.958811ZM170.63 3.79832C170.26 5.71693 169.045 8.48537 167.711 10.4502C162.565 18.0292 153.143 23.0553 141.311 24.5331C139.189 24.7981 132.811 24.7981 130.689 24.5331C122.167 23.4686 114.962 20.6024 109.37 16.0515C106.787 13.9496 104.08 10.6023 102.798 7.926C102.137 6.54635 101.291 4.10807 101.291 3.58104C101.291 3.2726 101.871 3.26737 136.012 3.26737H170.732L170.63 3.79832Z" fill="#FFFEFE"/>
<defs>
<filter id="filter0_d_918_9433" x="0" y="0.0447388" width="271.935" height="217.955" filterUnits="userSpaceOnUse" color-interpolation-filters="sRGB">
<feFlood flood-opacity="0" result="BackgroundImageFix"/>
<feColorMatrix in="SourceAlpha" type="matrix" values="0 0 0 0 0 0 0 0 0 0 0 0 0 0 0 0 0 0 127 0" result="hardAlpha"/>
<feOffset dy="4"/>
<feGaussianBlur stdDeviation="2"/>
<feComposite in2="hardAlpha" operator="out"/>
<feColorMatrix type="matrix" values="0 0 0 0 0 0 0 0 0 0 0 0 0 0 0 0 0 0 0.25 0"/>
<feBlend mode="normal" in2="BackgroundImageFix" result="effect1_dropShadow_918_9433"/>
<feBlend mode="normal" in="SourceGraphic" in2="effect1_dropShadow_918_9433" result="shape"/>
</filter>
</defs>
</svg>
