<svg width="263" height="177" viewBox="0 0 263 177" fill="none" xmlns="http://www.w3.org/2000/svg">
<rect x="3" y="3" width="257" height="171" rx="19" fill="#090000" stroke="#656060" stroke-width="6"/>
<path d="M97.68 137.224L87.312 127.336V103.72L97.68 94.312V137.224ZM97.488 48.04V90.952L87.12 81.64V57.928L97.488 48.04ZM140.093 86.152V43.048L150.461 52.552V76.264L140.093 86.152ZM198.557 43.048V86.152L188.189 76.648V53.032L198.557 43.048ZM139.805 89.416L150.173 99.304V123.016L139.805 132.424V89.416ZM198.269 132.424L187.901 122.44V98.824L198.269 89.416V132.424ZM155.357 71.464V51.976L182.621 97.864V117.448L155.357 71.464Z" fill="#80FF1C"/>
</svg>
