<svg width="272" height="177" viewBox="0 0 272 177" fill="none" xmlns="http://www.w3.org/2000/svg">
<rect x="3" y="3" width="266" height="171" rx="19" fill="#090000" stroke="#656060" stroke-width="6"/>
<path d="M39.992 135.448L49.88 125.08H73.592L82.904 135.448H39.992ZM37.112 88.312L47.48 98.296V121.816L37.112 131.224V88.312ZM85.976 131.224L75.608 121.336V97.72L85.976 88.312V131.224ZM39.896 37.912H82.808L73.304 48.28H49.784L39.896 37.912ZM36.824 84.952V42.04L47.192 51.352V75.16L36.824 84.952ZM85.688 42.04V84.952L75.32 75.64V51.928L85.688 42.04ZM116.773 135.448L126.661 125.08H150.373L159.685 135.448H116.773ZM113.893 88.312L124.261 98.296V121.816L113.893 131.224V88.312ZM162.757 131.224L152.389 121.336V97.72L162.757 88.312V131.224ZM113.605 84.952V42.04L123.973 51.352V75.16L113.605 84.952ZM162.469 42.04V84.952L152.101 75.64V51.928L162.469 42.04ZM220.243 131.224L209.875 121.336V97.72L220.243 88.312V131.224ZM185.491 46.552C183.251 44.76 181.011 43.064 178.771 41.464L185.491 36.28H244.435L251.155 41.464L244.435 46.552H219.955V84.952L209.587 75.64V51.928L215.251 46.552H185.491Z" fill="#D92525"/>
</svg>
